<svg width="84" height="84" viewBox="0 0 84 84" fill="none" xmlns="http://www.w3.org/2000/svg">
<path d="M19.6728 34.0154C19.5208 38.6719 20.0947 43.827 22.0487 48.1768C23.032 50.3657 23.5236 51.4602 24.3996 51.309C25.2755 51.1578 25.3656 49.7875 25.5458 47.0463C26.728 29.0651 42.216 9.87308 60.3208 7.23296C62.1478 6.96654 63.0612 6.8333 64.1364 7.36754C65.2113 7.90178 65.6765 8.77131 66.6068 10.5104C82.172 39.6063 70.4844 77 40.5335 77C16.9682 77 2.90397 49.6731 14.8277 31.7924C16.7281 28.9426 17.6783 27.5178 18.7706 27.8535C19.863 28.1893 19.7996 30.1313 19.6728 34.0154Z" stroke="#4C7766" stroke-width="8" stroke-linejoin="round"/>
</svg>
