<svg width="20" height="20" viewBox="0 0 20 20" fill="none" xmlns="http://www.w3.org/2000/svg">
<g clip-path="url(#clip0_7_53)">
<path d="M11.6667 11.6667L13.75 13.75" stroke="#4C7766" stroke-width="1.5" stroke-linejoin="round"/>
<path d="M13.6944 15.4377C13.213 14.9562 13.213 14.1757 13.6944 13.6944C14.1757 13.213 14.9562 13.213 15.4377 13.6944L17.9722 16.229C18.4537 16.7104 18.4537 17.4909 17.9722 17.9722C17.4909 18.4537 16.7104 18.4537 16.229 17.9722L13.6944 15.4377Z" stroke="#4C7766" stroke-width="1.5" stroke-linecap="round"/>
<path d="M13.3333 7.49999C13.3333 4.27833 10.7217 1.66666 7.49999 1.66666C4.27833 1.66666 1.66666 4.27833 1.66666 7.49999C1.66666 10.7217 4.27833 13.3333 7.49999 13.3333C10.7217 13.3333 13.3333 10.7217 13.3333 7.49999Z" stroke="#4C7766" stroke-width="1.5" stroke-linejoin="round"/>
</g>
<defs>
<clipPath id="clip0_7_53">
<rect width="20" height="20" fill="white"/>
</clipPath>
</defs>
</svg>
